<svg width="1552" height="961" viewBox="0 0 1552 961" fill="none" xmlns="http://www.w3.org/2000/svg">
<path d="M789.536 53.9983C789.061 53.7602 788.705 53.5221 788.468 53.284C787.993 53.284 787.637 53.165 787.4 52.9269C786.925 52.6888 786.569 52.4507 786.332 52.2126C785.858 51.9745 785.502 51.7364 785.264 51.4984C785.027 51.2603 784.671 51.0222 784.196 50.7841C783.959 50.7841 783.722 50.665 783.484 50.4269C783.01 50.1889 782.654 49.8317 782.416 49.3555C782.179 49.1175 781.942 48.8794 781.704 48.6413C781.467 48.4032 781.111 48.1651 780.636 47.927L779.924 47.2128C779.687 46.9747 779.45 46.7366 779.212 46.4985L778.5 45.4271L777.788 44.7129L777.076 43.9986L776.72 42.9272L776.008 42.2129L776.364 42.9272L776.72 43.9986L777.432 44.7129L778.144 45.7842C778.144 46.0223 778.263 46.2604 778.5 46.4985C778.738 46.9747 778.975 47.3318 779.212 47.5699C779.45 47.808 779.687 48.0461 779.924 48.2842C780.162 48.5223 780.399 48.8794 780.636 49.3555C781.111 49.5936 781.467 49.8318 781.704 50.0698C781.942 50.3079 782.179 50.546 782.416 50.7841C782.891 51.0222 783.247 51.2603 783.484 51.4984C783.722 51.7364 784.078 51.9745 784.552 52.2126C784.79 52.4507 785.146 52.6888 785.62 52.9269C785.858 53.165 786.213 53.4031 786.688 53.6412C786.925 53.8793 787.281 53.9983 787.756 53.9983C787.756 54.2364 787.875 54.3554 788.112 54.3554C787.875 54.3554 787.756 54.3554 787.756 54.3554C787.281 54.5935 786.925 54.8316 786.688 55.0697C786.213 55.3078 785.858 55.5458 785.62 55.7839C785.146 56.022 784.79 56.2601 784.552 56.4982C784.078 56.7363 783.722 56.9744 783.484 57.2125C783.247 57.4506 783.01 57.6887 782.772 57.9267C782.298 58.1648 781.942 58.4029 781.704 58.641C781.467 58.8791 781.23 59.1172 780.992 59.3553C780.755 59.5933 780.518 59.9505 780.28 60.4267C780.043 60.6648 779.806 60.9028 779.568 61.1409C779.331 61.379 779.094 61.6171 778.856 61.8552C778.619 62.3313 778.382 62.6885 778.144 62.9266C777.907 63.1647 777.67 63.4027 777.432 63.6408C777.432 64.117 777.314 64.4742 777.076 64.7122C776.839 64.9503 776.602 65.1884 776.364 65.4265L776.008 66.4979C776.483 66.0217 776.958 65.4265 777.432 64.7122C777.67 64.4742 777.907 64.2361 778.144 63.998C778.382 63.7599 778.619 63.4028 778.856 62.9266C779.331 62.4504 779.806 61.9742 780.28 61.4981C780.518 61.26 780.755 61.0219 780.992 60.7838C781.23 60.5457 781.467 60.3076 781.704 60.0695C781.942 59.5933 782.298 59.2362 782.772 58.9982C783.01 58.7601 783.247 58.5219 783.484 58.2838C783.722 58.0458 784.078 57.8077 784.552 57.5696C784.79 57.3315 785.027 57.0934 785.264 56.8553C785.739 56.8553 786.095 56.7363 786.332 56.4982C786.569 56.2601 786.925 56.022 787.4 55.7839C787.637 55.5458 787.993 55.3078 788.468 55.0697C788.943 55.0697 789.299 54.9506 789.536 54.7125C789.536 54.7125 789.655 54.7125 789.892 54.7125C789.892 54.3554 789.892 53.9983 789.536 53.9983Z" fill="#3BE174"/>
<path fill-rule="evenodd" clip-rule="evenodd" d="M776.001 66.8567C775.764 66.6186 775.645 66.4995 775.645 66.4995L776.001 65.4281C776.238 65.19 776.357 64.952 776.357 64.7139H776.713C776.713 64.4758 776.832 64.2377 777.069 63.9996C777.069 63.7615 777.069 63.6425 777.069 63.6425C777.306 63.4044 777.425 63.1663 777.425 62.9282H777.781C778.018 62.6901 778.137 62.452 778.137 62.214L778.493 61.8568C778.73 61.6187 778.968 61.3806 779.205 61.1425C779.442 60.6664 779.68 60.3092 779.917 60.0711C780.154 59.8331 780.391 59.595 780.629 59.3569C780.866 59.1188 781.103 58.8807 781.341 58.6426C781.578 58.1665 781.934 57.8093 782.409 57.5712C782.646 57.3331 782.883 57.0951 783.121 56.857C783.358 56.6189 783.714 56.3808 784.189 56.1427C784.426 55.9046 784.663 55.7856 784.901 55.7856L785.257 55.4285C785.494 55.4285 785.731 55.3094 785.969 55.0713C785.969 55.0713 786.087 54.9522 786.325 54.7142C786.562 54.7142 786.799 54.5951 787.037 54.3571C786.799 54.119 786.562 53.8809 786.325 53.6428C786.087 53.6428 785.969 53.6428 785.969 53.6428C785.731 53.4047 785.494 53.2856 785.257 53.2856C785.019 53.0476 784.901 52.9285 784.901 52.9285C784.663 52.6904 784.426 52.5714 784.189 52.5714C783.951 52.3333 783.833 52.2142 783.833 52.2142C783.595 51.9762 783.358 51.8571 783.121 51.8571C783.121 51.6191 783.002 51.5 782.765 51.5C782.527 51.2619 782.29 51.0238 782.053 50.7857C782.053 50.7857 781.934 50.7857 781.697 50.7857C781.697 50.5476 781.578 50.3096 781.341 50.0715C781.103 50.0715 780.985 50.0715 780.985 50.0715C780.748 49.8334 780.51 49.5953 780.273 49.3572C780.273 49.3572 780.273 49.2382 780.273 49.0001C780.036 48.762 779.798 48.6429 779.561 48.6429C779.561 48.4048 779.561 48.2858 779.561 48.2858C779.324 48.0477 779.086 47.8096 778.849 47.5715C778.849 47.5715 778.849 47.4525 778.849 47.2144C778.612 47.2144 778.374 47.0953 778.137 46.8573V46.5002C777.9 46.2621 777.662 46.0239 777.425 45.7858L777.069 45.0716L776.357 44.0002L776.001 43.2859L775.645 42.2145C775.645 41.9764 775.764 41.8574 776.001 41.8574C776.238 41.8574 776.357 41.8574 776.357 41.8574L777.069 42.9288L777.425 43.6431L778.137 44.7145L778.849 45.4287L779.561 46.143C779.798 46.3811 779.917 46.6192 779.917 46.8573C780.154 46.8573 780.273 46.9763 780.273 47.2144L780.985 47.9287C781.222 47.9287 781.459 48.0477 781.697 48.2858C781.697 48.2858 781.815 48.4048 782.053 48.6429C782.053 48.881 782.171 49.0001 782.409 49.0001C782.646 49.2382 782.765 49.3572 782.765 49.3572C783.002 49.5953 783.239 49.7143 783.477 49.7143C783.477 49.9524 783.595 50.0715 783.833 50.0715C783.833 50.3096 783.951 50.4286 784.189 50.4286C784.426 50.6667 784.545 50.7857 784.545 50.7857C784.782 50.7857 785.019 50.9047 785.257 51.1428C785.257 51.1428 785.375 51.2619 785.613 51.5C785.85 51.5 786.087 51.6191 786.325 51.8571C786.325 51.8571 786.443 51.8571 786.681 51.8571C786.918 52.0952 787.037 52.3333 787.037 52.5714C787.274 52.5714 787.511 52.5714 787.749 52.5714C787.749 52.8095 787.867 52.9285 788.105 52.9285C788.342 52.9285 788.579 53.0476 788.817 53.2856C788.817 53.2856 788.935 53.2856 789.173 53.2856C789.41 53.5237 789.647 53.6428 789.885 53.6428C790.122 53.8809 790.241 53.9999 790.241 53.9999C790.241 54.238 790.241 54.4761 790.241 54.7142C790.003 54.7142 789.885 54.8332 789.885 55.0713C789.647 55.0713 789.529 55.0713 789.529 55.0713C789.291 55.3094 789.054 55.4285 788.817 55.4285C788.579 55.4285 788.461 55.5475 788.461 55.7856C788.223 55.7856 787.986 55.9046 787.749 56.1427C787.511 56.1427 787.393 56.1427 787.393 56.1427C787.155 56.3808 786.918 56.4998 786.681 56.4998C786.443 56.7379 786.325 56.857 786.325 56.857C786.087 56.857 785.85 56.976 785.613 57.2141C785.375 57.4522 785.019 57.6903 784.545 57.9284C784.307 58.1665 784.07 58.4045 783.833 58.6426C783.595 58.8807 783.239 59.1188 782.765 59.3569C782.527 59.595 782.29 59.8331 782.053 60.0711C781.815 60.3092 781.578 60.5474 781.341 60.7854C781.103 61.0235 780.866 61.2616 780.629 61.4997C780.154 61.9759 779.68 62.5711 779.205 63.2854L778.849 63.6425C778.612 63.6425 778.493 63.7615 778.493 63.9996C778.256 64.2377 778.137 64.3568 778.137 64.3568C777.9 64.5949 777.781 64.8329 777.781 65.071C777.306 65.5472 776.832 66.0234 776.357 66.4995C776.357 66.7376 776.238 66.8567 776.001 66.8567ZM779.561 47.5715C779.798 47.5715 780.036 47.6906 780.273 47.9287C780.273 47.9287 780.273 48.0477 780.273 48.2858C780.51 48.5239 780.748 48.6429 780.985 48.6429C780.985 48.881 780.985 49.0001 780.985 49.0001C781.222 49.2382 781.459 49.4762 781.697 49.7143C781.697 49.7143 781.815 49.7143 782.053 49.7143C782.29 49.9524 782.409 50.1905 782.409 50.4286C782.646 50.4286 782.765 50.4286 782.765 50.4286C783.002 50.6667 783.239 50.9047 783.477 51.1428C783.477 51.1428 783.595 51.2619 783.833 51.5C784.07 51.5 784.307 51.6191 784.545 51.8571C784.545 51.8571 784.663 51.8571 784.901 51.8571C784.901 52.0952 785.019 52.3333 785.257 52.5714C785.494 52.5714 785.613 52.5714 785.613 52.5714C785.85 52.8095 786.087 52.9285 786.325 52.9285C786.562 53.1666 786.681 53.2856 786.681 53.2856C786.918 53.5237 787.155 53.6428 787.393 53.6428C787.63 53.6428 787.867 53.7618 788.105 53.9999H788.461C788.461 53.9999 788.461 54.119 788.461 54.3571C788.461 54.3571 788.461 54.4761 788.461 54.7142H788.105C787.867 54.7142 787.749 54.8332 787.749 55.0713C787.274 55.0713 787.037 55.1904 787.037 55.4285C786.799 55.4285 786.562 55.4285 786.325 55.4285C786.087 55.6666 785.969 55.7856 785.969 55.7856L785.613 56.1427C785.375 56.3808 785.138 56.4998 784.901 56.4998L784.545 56.857C784.307 56.857 784.07 56.976 783.833 57.2141C783.595 57.4522 783.358 57.6903 783.121 57.9284C782.646 58.1665 782.29 58.5236 782.053 58.9998C781.815 59.2379 781.578 59.476 781.341 59.714C781.578 59.476 781.934 59.2379 782.409 58.9998C782.646 58.7617 782.883 58.5236 783.121 58.2855C783.358 58.0474 783.714 57.8093 784.189 57.5712C784.426 57.3331 784.663 57.0951 784.901 56.857C785.138 56.6189 785.375 56.4998 785.613 56.4998C785.85 56.2617 785.969 56.1427 785.969 56.1427C786.206 55.9046 786.443 55.7856 786.681 55.7856C786.918 55.7856 787.037 55.6666 787.037 55.4285C787.274 55.4285 787.511 55.3094 787.749 55.0713C787.986 55.0713 788.105 55.0713 788.105 55.0713C788.342 54.8332 788.579 54.7142 788.817 54.7142C789.054 54.4761 789.173 54.3571 789.173 54.3571C789.41 54.3571 789.529 54.3571 789.529 54.3571C789.529 54.3571 789.41 54.238 789.173 53.9999C789.173 53.9999 789.054 53.9999 788.817 53.9999C788.579 53.7618 788.342 53.6428 788.105 53.6428C788.105 53.6428 787.986 53.5237 787.749 53.2856C787.511 53.2856 787.274 53.1666 787.037 52.9285C787.037 52.9285 786.918 52.9285 786.681 52.9285C786.443 52.6904 786.206 52.5714 785.969 52.5714C785.969 52.3333 785.85 52.2142 785.613 52.2142C785.375 52.2142 785.138 52.0952 784.901 51.8571C784.901 51.8571 784.782 51.7381 784.545 51.5C784.307 51.5 784.07 51.3809 783.833 51.1428C783.833 51.1428 783.714 51.0238 783.477 50.7857C783.477 50.7857 783.358 50.6667 783.121 50.4286C782.883 50.4286 782.765 50.3096 782.765 50.0715C782.527 50.0715 782.29 49.9524 782.053 49.7143C782.053 49.7143 781.934 49.5953 781.697 49.3572C781.697 49.3572 781.578 49.2382 781.341 49.0001C781.103 48.762 780.985 48.6429 780.985 48.6429C780.748 48.4048 780.51 48.2858 780.273 48.2858L779.561 47.5715Z" fill="#3BE174"/>
<path d="M762.12 53.9983C762.594 53.7602 763.069 53.5221 763.544 53.284C763.781 53.284 764.137 53.165 764.612 52.9269C764.849 52.6888 765.205 52.4507 765.68 52.2126C765.917 51.9745 766.273 51.7364 766.748 51.4984C766.985 51.2603 767.222 51.0222 767.46 50.7841C767.934 50.7841 768.29 50.665 768.528 50.4269C768.765 50.1889 769.002 49.8317 769.24 49.3555C769.714 49.1175 770.07 48.8794 770.308 48.6413C770.545 48.4032 770.782 48.1651 771.02 47.927L771.731 47.2128C771.969 46.9747 772.206 46.7366 772.443 46.4985L773.155 45.4271L773.867 44.7129L774.579 43.9986L775.291 42.9272L774.935 43.9986L774.579 44.7129L773.867 45.7842C773.63 46.0223 773.393 46.2604 773.155 46.4985C772.918 46.9747 772.681 47.3318 772.443 47.5699C772.206 47.808 771.969 48.0461 771.731 48.2842C771.494 48.5223 771.257 48.8794 771.02 49.3555C770.782 49.5936 770.545 49.8318 770.308 50.0698C770.07 50.3079 769.714 50.546 769.24 50.7841C769.002 51.0222 768.765 51.2603 768.528 51.4984C768.053 51.7364 767.697 51.9745 767.46 52.2126C766.985 52.4507 766.629 52.6888 766.392 52.9269C765.917 53.165 765.561 53.4031 765.324 53.6412C764.849 53.8793 764.493 53.9983 764.256 53.9983C764.018 54.2364 763.9 54.3554 763.9 54.3554C763.9 54.3554 764.018 54.3554 764.256 54.3554C764.493 54.5935 764.849 54.8316 765.324 55.0697C765.561 55.3078 765.917 55.5458 766.392 55.7839C766.629 56.022 766.985 56.2601 767.46 56.4982C767.697 56.7363 767.934 56.9744 768.172 57.2125C768.646 57.4506 769.002 57.6887 769.24 57.9267C769.477 58.1648 769.714 58.4029 769.952 58.641C770.426 58.8791 770.782 59.1172 771.02 59.3553C771.257 59.5933 771.494 59.9505 771.731 60.4267C771.969 60.6648 772.206 60.9028 772.443 61.1409C772.681 61.379 772.918 61.6171 773.155 61.8552C773.393 62.3313 773.511 62.6885 773.511 62.9266C773.749 63.1647 773.986 63.4027 774.223 63.6408C774.461 64.117 774.698 64.4742 774.935 64.7122C774.935 64.9503 775.054 65.1884 775.291 65.4265L775.647 66.4979C775.41 66.0217 775.054 65.4265 774.579 64.7122C774.342 64.4742 774.105 64.2361 773.867 63.998C773.63 63.7599 773.393 63.4028 773.155 62.9266C772.681 62.4504 772.206 61.9742 771.731 61.4981C771.494 61.26 771.257 61.0219 771.02 60.7838C770.782 60.5457 770.426 60.3076 769.952 60.0695C769.714 59.5933 769.477 59.2362 769.24 58.9982C769.002 58.7601 768.765 58.5219 768.528 58.2838C768.053 58.0458 767.697 57.8077 767.46 57.5696C767.222 57.3315 766.866 57.0934 766.392 56.8553C766.154 56.8553 765.917 56.7363 765.68 56.4982C765.205 56.2601 764.849 56.022 764.612 55.7839C764.137 55.5458 763.781 55.3078 763.544 55.0697C763.069 55.0697 762.594 54.9506 762.12 54.7125C761.764 54.3554 762.12 53.9983 762.12 53.9983Z" fill="#3BE174"/>
<path fill-rule="evenodd" clip-rule="evenodd" d="M775.646 66.8567C775.646 66.8567 775.528 66.7376 775.29 66.4995C775.053 66.0234 774.697 65.5472 774.222 65.071C773.985 64.8329 773.866 64.5949 773.866 64.3568C773.629 64.3568 773.51 64.2377 773.51 63.9996C773.273 63.7615 773.154 63.6425 773.154 63.6425L772.798 63.2854C772.324 62.5711 771.849 61.9759 771.374 61.4997C771.137 61.2616 770.9 61.0235 770.662 60.7854C770.425 60.5474 770.069 60.3092 769.595 60.0711C769.357 59.8331 769.12 59.595 768.882 59.3569C768.645 59.1188 768.408 58.8807 768.171 58.6426C767.933 58.4045 767.577 58.1665 767.103 57.9284C766.865 57.6903 766.628 57.4522 766.391 57.2141H766.035C766.035 56.976 765.916 56.857 765.679 56.857C765.441 56.857 765.323 56.7379 765.323 56.4998C765.085 56.4998 764.848 56.3808 764.611 56.1427C764.373 56.1427 764.255 56.1427 764.255 56.1427C764.017 55.9046 763.78 55.7856 763.543 55.7856C763.305 55.5475 763.187 55.4285 763.187 55.4285C762.949 55.4285 762.712 55.3094 762.475 55.0713C762.237 55.0713 762.119 55.0713 762.119 55.0713C761.881 54.8332 761.763 54.7142 761.763 54.7142C761.525 54.4761 761.407 54.238 761.407 53.9999C761.644 53.9999 761.881 53.8809 762.119 53.6428C762.119 53.6428 762.237 53.5237 762.475 53.2856C762.712 53.2856 762.949 53.2856 763.187 53.2856C763.187 53.0476 763.305 52.9285 763.543 52.9285C763.78 52.9285 764.017 52.8095 764.255 52.5714C764.255 52.5714 764.373 52.5714 764.611 52.5714C764.848 52.3333 765.085 52.0952 765.323 51.8571C765.323 51.8571 765.441 51.8571 765.679 51.8571C765.916 51.6191 766.153 51.5 766.391 51.5C766.391 51.2619 766.509 51.1428 766.747 51.1428C766.984 50.9047 767.103 50.7857 767.103 50.7857C767.34 50.7857 767.459 50.6667 767.459 50.4286C767.696 50.4286 767.933 50.3096 768.171 50.0715C768.171 50.0715 768.289 49.9524 768.527 49.7143C768.764 49.7143 768.882 49.5953 768.882 49.3572C769.12 49.3572 769.238 49.2382 769.238 49.0001C769.476 49.0001 769.713 48.881 769.95 48.6429C769.95 48.4048 770.069 48.2858 770.306 48.2858C770.306 48.0477 770.425 47.9287 770.662 47.9287L771.374 47.2144C771.612 46.9763 771.73 46.8573 771.73 46.8573C771.968 46.6192 772.086 46.3811 772.086 46.143L772.798 45.4287L773.51 44.7145L774.222 43.6431L774.934 42.9288L775.29 41.8574C775.528 41.8574 775.765 41.8574 776.002 41.8574C776.24 41.8574 776.358 41.9764 776.358 42.2145L775.646 43.2859L775.29 44.0002L774.934 45.0716L774.222 45.7858C773.985 46.0239 773.866 46.2621 773.866 46.5002L773.51 46.8573C773.51 47.0953 773.392 47.2144 773.154 47.2144C773.154 47.4525 773.036 47.5715 772.798 47.5715C772.798 47.8096 772.68 48.0477 772.442 48.2858C772.442 48.2858 772.324 48.4048 772.086 48.6429C772.086 48.6429 771.968 48.762 771.73 49.0001C771.493 49.2382 771.374 49.3572 771.374 49.3572C771.137 49.5953 771.018 49.8334 771.018 50.0715C770.781 50.0715 770.662 50.0715 770.662 50.0715C770.425 50.3096 770.188 50.5476 769.95 50.7857C769.95 50.7857 769.832 50.7857 769.595 50.7857C769.357 51.0238 769.12 51.2619 768.882 51.5C768.882 51.5 768.882 51.6191 768.882 51.8571C768.645 51.8571 768.408 51.9762 768.171 52.2142C767.933 52.2142 767.815 52.3333 767.815 52.5714C767.577 52.5714 767.34 52.6904 767.103 52.9285C766.865 52.9285 766.747 53.0476 766.747 53.2856C766.509 53.2856 766.272 53.4047 766.035 53.6428C765.797 53.6428 765.679 53.6428 765.679 53.6428C765.441 53.8809 765.085 54.119 764.611 54.3571C764.848 54.5951 765.204 54.7142 765.679 54.7142C765.679 54.9522 765.797 55.0713 766.035 55.0713C766.272 55.3094 766.509 55.4285 766.747 55.4285V55.7856C766.984 55.7856 767.34 55.9046 767.815 56.1427C768.052 56.3808 768.289 56.6189 768.527 56.857C769.001 57.0951 769.357 57.3331 769.595 57.5712C769.832 57.8093 770.069 58.1665 770.306 58.6426C770.781 58.8807 771.137 59.1188 771.374 59.3569C771.612 59.595 771.849 59.8331 772.086 60.0711C772.324 60.3092 772.561 60.6664 772.798 61.1425C773.036 61.3806 773.273 61.6187 773.51 61.8568V62.214C773.748 62.452 773.985 62.6901 774.222 62.9282C774.46 63.1663 774.578 63.4044 774.578 63.6425C774.816 63.6425 774.934 63.7615 774.934 63.9996C774.934 64.2377 775.053 64.4758 775.29 64.7139C775.528 64.952 775.646 65.19 775.646 65.4281L776.358 66.4995C776.358 66.4995 776.24 66.6186 776.002 66.8567C776.002 66.8567 775.884 66.8567 775.646 66.8567ZM772.086 47.5715L771.374 48.2858C771.137 48.2858 771.018 48.4048 771.018 48.6429C770.781 48.881 770.662 49.0001 770.662 49.0001C770.425 49.2382 770.188 49.3572 769.95 49.3572C769.95 49.5953 769.832 49.7143 769.595 49.7143C769.595 49.9524 769.476 50.0715 769.238 50.0715C769.001 50.3096 768.882 50.4286 768.882 50.4286C768.645 50.6667 768.408 50.7857 768.171 50.7857C768.171 51.0238 768.052 51.1428 767.815 51.1428C767.577 51.3809 767.34 51.5 767.103 51.5C767.103 51.7381 766.984 51.8571 766.747 51.8571C766.509 52.0952 766.272 52.2142 766.035 52.2142C766.035 52.2142 765.916 52.3333 765.679 52.5714C765.679 52.5714 765.56 52.6904 765.323 52.9285C765.085 52.9285 764.848 52.9285 764.611 52.9285C764.373 53.1666 764.136 53.2856 763.899 53.2856C763.899 53.5237 763.78 53.6428 763.543 53.6428C763.305 53.6428 763.068 53.7618 762.831 53.9999C762.831 53.9999 762.712 53.9999 762.475 53.9999C762.475 54.238 762.475 54.3571 762.475 54.3571C762.712 54.3571 762.831 54.4761 762.831 54.7142C763.068 54.7142 763.305 54.8332 763.543 55.0713C763.78 55.0713 763.899 55.0713 763.899 55.0713C764.136 55.3094 764.373 55.4285 764.611 55.4285C764.848 55.6666 764.967 55.7856 764.967 55.7856C765.204 55.7856 765.441 55.9046 765.679 56.1427C765.916 56.1427 766.035 56.2617 766.035 56.4998C766.272 56.4998 766.509 56.6189 766.747 56.857C767.221 57.0951 767.577 57.3331 767.815 57.5712C768.052 57.8093 768.289 58.0474 768.527 58.2855C769.001 58.5236 769.357 58.7617 769.595 58.9998C769.832 59.2379 770.069 59.476 770.306 59.714C770.781 59.9521 771.137 60.1902 771.374 60.4283C771.137 60.1902 770.9 59.9521 770.662 59.714C770.425 59.476 770.069 59.2379 769.595 58.9998C769.357 58.5236 769.12 58.1665 768.882 57.9284C768.645 57.6903 768.408 57.4522 768.171 57.2141C767.696 56.976 767.34 56.857 767.103 56.857V56.4998C766.865 56.4998 766.628 56.3808 766.391 56.1427L766.035 55.7856C765.797 55.7856 765.56 55.6666 765.323 55.4285C765.323 55.4285 765.204 55.4285 764.967 55.4285C764.729 55.1904 764.492 55.0713 764.255 55.0713C764.017 54.8332 763.899 54.7142 763.899 54.7142C763.899 54.7142 763.78 54.7142 763.543 54.7142C763.305 54.4761 763.187 54.3571 763.187 54.3571C763.187 54.119 763.305 53.9999 763.543 53.9999C763.78 53.9999 763.899 53.9999 763.899 53.9999C763.899 53.7618 764.017 53.6428 764.255 53.6428C764.492 53.6428 764.729 53.5237 764.967 53.2856C765.204 53.2856 765.323 53.1666 765.323 52.9285C765.56 52.9285 765.797 52.8095 766.035 52.5714C766.272 52.5714 766.391 52.5714 766.391 52.5714C766.628 52.3333 766.865 52.0952 767.103 51.8571C767.103 51.8571 767.221 51.8571 767.459 51.8571C767.696 51.6191 767.933 51.5 768.171 51.5C768.171 51.2619 768.289 51.1428 768.527 51.1428C768.764 50.9047 768.882 50.6667 768.882 50.4286C769.12 50.4286 769.238 50.4286 769.238 50.4286C769.476 50.1905 769.713 49.9524 769.95 49.7143C769.95 49.7143 770.069 49.7143 770.306 49.7143C770.306 49.4762 770.425 49.2382 770.662 49.0001C770.662 49.0001 770.781 48.881 771.018 48.6429C771.256 48.6429 771.374 48.5239 771.374 48.2858C771.612 48.0477 771.73 47.9287 771.73 47.9287C771.73 47.6906 771.849 47.5715 772.086 47.5715Z" fill="#3BE174"/>
<path d="M782.064 63.9977C781.826 63.9977 781.708 63.9977 781.708 63.9977C781.708 63.9977 781.708 63.8787 781.708 63.6406C783.844 61.2597 786.217 59.236 788.827 57.5693C788.827 57.5693 788.946 57.5693 789.183 57.5693C786.573 59.474 784.2 61.6168 782.064 63.9977Z" fill="#3BE174"/>
<path d="M762.118 51.8565C761.881 51.8565 761.762 51.8565 761.762 51.8565C764.847 49.9518 767.695 47.5709 770.306 44.7139C770.306 44.7139 770.425 44.7139 770.662 44.7139C768.051 47.5709 765.203 49.9518 762.118 51.8565Z" fill="#3BE174"/>
<path d="M788.816 51.1422C785.968 49.4756 783.476 47.3328 781.34 44.7139C781.578 44.7139 781.696 44.7139 781.696 44.7139C783.832 47.0947 786.324 49.2375 789.172 51.1422C789.172 51.1422 789.054 51.1422 788.816 51.1422Z" fill="#3BE174"/>
<path d="M769.95 64.0001C767.339 61.143 764.61 58.8812 761.762 57.2146C761.762 56.9765 761.762 56.8574 761.762 56.8574C761.999 56.8574 762.118 56.8574 762.118 56.8574C764.966 58.7621 767.695 61.0239 770.306 63.6429C770.306 63.881 770.306 64.0001 770.306 64.0001C770.306 64.0001 770.187 64.0001 769.95 64.0001Z" fill="#3BE174"/>
<path fill-rule="evenodd" clip-rule="evenodd" d="M928.36 55.4275C928.123 55.4275 928.004 55.4275 928.004 55.4275L927.648 55.0704L926.936 54.3561C926.699 54.3561 926.699 54.2371 926.936 53.999L927.648 53.6419L928.004 53.2847C928.004 53.0466 928.123 52.9276 928.36 52.9276L951.144 53.999C951.381 53.999 951.5 54.118 951.5 54.3561C951.5 54.3561 951.381 54.3561 951.144 54.3561L928.36 55.4275ZM928.004 54.7132L928.36 55.0704L945.804 54.3561L928.36 53.6419L928.004 53.999L927.648 54.3561L928.004 54.7132Z" fill="#3BE174"/>
<path d="M922.667 54.3573C920.887 54.3573 922.311 54.3573 921.955 54.3573C921.718 54.3573 921.599 54.2382 921.599 54.0001C921.599 54.0001 921.599 54.0001 921.243 54.0001H920.887H919.108H915.192H908.072L893.12 53.643L863.929 53.2859L804.834 52.5716H805.902L801.63 54.3573L801.274 54.0001L804.122 51.1431L804.478 50.786H804.834L863.929 52.2145L893.12 52.9287L908.072 53.2859H915.192H919.108H920.887H921.243H921.599C921.837 53.2859 921.955 53.4049 921.955 53.643C922.193 53.643 922.311 53.762 922.311 54.0001C922.549 54.0001 922.667 54.0001 922.667 54.0001C922.667 54.0001 922.667 54.1192 922.667 54.3573C922.311 54.3573 923.379 54.3573 921.955 54.3573H922.667Z" fill="#3BE174"/>
<path d="M921.955 54.3573C923.379 54.3573 922.311 54.3573 922.667 54.3573C922.667 54.5953 922.667 54.7143 922.667 54.7143C922.667 54.7143 922.549 54.8334 922.311 55.0715C922.311 55.0715 922.193 55.0715 921.955 55.0715C921.955 55.3096 921.837 55.4287 921.599 55.4287H921.243H920.887H919.108H915.192L908.072 55.7858H893.12L863.929 56.5L804.834 57.9286H804.478L804.122 57.5714L801.274 54.7143L801.63 54.3573L805.902 56.5L804.834 56.1429L863.929 55.4287L893.12 55.0715L908.072 54.7143H915.192H919.108H920.887H921.243C921.599 54.7143 921.599 54.7143 921.599 54.7143C921.599 54.7143 921.718 54.5953 921.955 54.3573C922.311 54.3573 920.887 54.3573 922.667 54.3573H921.955Z" fill="#3BE174"/>
<path d="M924.45 56.1412L921.602 54.3555L924.45 52.2127L927.298 54.3555L924.45 56.1412Z" fill="#3BE174"/>
<path fill-rule="evenodd" clip-rule="evenodd" d="M795.577 60.7851L795.221 59.7137C793.56 57.3328 791.661 55.6661 789.525 54.7138L788.813 54.3567L789.525 53.9995C792.017 52.9281 793.797 51.1425 795.221 48.6425L795.577 47.5711L796.289 48.6425C797.357 51.1425 799.493 52.9281 801.629 53.9995L802.697 54.3567L801.629 54.7138C799.493 55.6661 797.713 57.3328 796.289 59.7137L795.577 60.7851ZM790.949 54.3567C792.61 55.309 794.153 56.7375 795.577 58.6422C796.763 56.7375 798.306 55.309 800.205 54.3567C798.425 53.2853 796.645 51.8567 795.577 50.0711C794.509 51.8567 792.729 53.2853 790.949 54.3567Z" fill="#3BE174"/>
<path fill-rule="evenodd" clip-rule="evenodd" d="M623.996 55.4275C623.996 55.4275 623.877 55.4275 623.64 55.4275L600.856 54.3561C600.619 54.3561 600.5 54.3561 600.5 54.3561C600.5 54.118 600.619 53.999 600.856 53.999L623.64 52.9276C623.877 52.9276 623.996 53.0466 623.996 53.2847L624.352 53.6419L625.064 53.999C625.301 54.2371 625.301 54.3561 625.064 54.3561L624.352 55.0704L623.996 55.4275ZM606.196 54.3561L623.64 55.0704L623.996 54.7132L624.352 54.3561L623.996 53.999L623.64 53.6419L606.196 54.3561Z" fill="#3BE174"/>
<path d="M630.412 54.3573C628.632 54.3573 629.7 54.3573 629.344 54.3573C629.344 54.1192 629.344 54.0001 629.344 54.0001C629.344 54.0001 629.463 54.0001 629.7 54.0001C629.7 53.762 629.819 53.643 630.056 53.643C630.293 53.4049 630.412 53.2859 630.412 53.2859C630.412 53.2859 630.531 53.2859 630.768 53.2859H631.124H632.904H636.82H643.94L658.891 52.9287L688.083 52.2145L747.177 50.786H747.889V51.1431L751.093 54.0001L750.381 54.3573L746.109 52.5716H747.177L688.439 53.2859L658.891 53.643L643.94 54.0001H636.82H632.904H631.124H630.768C630.412 54.0001 630.412 54.0001 630.412 54.0001C630.412 54.2382 630.412 54.3573 630.412 54.3573C630.056 54.3573 631.124 54.3573 629.344 54.3573H630.412Z" fill="#3BE174"/>
<path d="M629.344 54.3573C631.124 54.3573 630.056 54.3573 630.412 54.3573C630.412 54.5953 630.412 54.7143 630.412 54.7143C630.412 54.7143 630.412 54.7143 630.768 54.7143H631.124H632.904H636.82H643.94L658.891 55.0715L688.439 55.4287L747.177 56.1429L746.109 56.5L750.381 54.3573L751.093 54.7143L747.889 57.5714V57.9286H747.177L688.083 56.5L658.891 55.7858H643.94L636.82 55.4287H632.904H631.124H630.768C630.531 55.4287 630.412 55.4287 630.412 55.4287C630.412 55.4287 630.293 55.3096 630.056 55.0715C629.819 55.0715 629.7 55.0715 629.7 55.0715C629.463 54.8334 629.344 54.7143 629.344 54.7143C629.344 54.7143 629.344 54.5953 629.344 54.3573C629.7 54.3573 628.632 54.3573 630.412 54.3573H629.344Z" fill="#3BE174"/>
<path d="M627.551 56.1412L630.399 54.3555L627.551 52.2127L625.059 54.3555L627.551 56.1412Z" fill="#3BE174"/>
<path fill-rule="evenodd" clip-rule="evenodd" d="M756.429 60.7851L755.717 59.7137C754.293 57.3328 752.513 55.6661 750.377 54.7138L749.309 54.3567L750.377 53.9995C752.513 52.9281 754.649 51.1425 755.717 48.6425L756.429 47.5711L757.141 48.6425C758.209 51.1425 760.345 52.9281 762.481 53.9995L763.549 54.3567L762.481 54.7138C760.345 55.6661 758.565 57.3328 757.141 59.7137L756.429 60.7851ZM751.801 54.3567C753.462 55.309 755.005 56.7375 756.429 58.6422C757.616 56.7375 759.158 55.309 761.057 54.3567C758.921 53.2853 757.497 51.8567 756.429 50.0711C755.005 51.8567 753.581 53.2853 751.801 54.3567Z" fill="#3BE174"/>
<path fill-rule="evenodd" clip-rule="evenodd" d="M776.003 42.5712L775.291 41.4997C774.579 40.3093 773.63 39.3569 772.443 38.6427L771.375 38.2856L772.443 37.9284C773.511 37.5713 774.935 36.4999 775.291 35.0714L776.003 34L776.715 35.0714C777.427 36.4999 778.495 37.5713 779.563 37.9284L780.631 38.2856L779.563 38.6427C778.377 39.3569 777.427 40.3093 776.715 41.4997L776.003 42.5712ZM773.511 38.6427C774.461 39.1189 775.291 39.7141 776.003 40.4283C776.478 39.7141 777.19 39.1189 778.139 38.6427C777.19 37.9284 776.478 37.2142 776.003 36.4999C775.291 37.2142 774.461 37.9284 773.511 38.6427Z" fill="#3BE174"/>
<path fill-rule="evenodd" clip-rule="evenodd" d="M776.003 73.9996L775.291 72.9282C774.579 71.4997 773.63 70.5473 772.443 70.0711L771.375 69.714L772.443 69.3569C773.511 68.6426 774.935 67.5712 775.291 66.4998L776.003 65.0713L776.715 66.4998C777.427 67.5712 778.495 68.6426 779.563 69.3569L780.631 69.714L779.563 70.0711C778.377 70.5473 777.427 71.4997 776.715 72.9282L776.003 73.9996ZM773.511 69.714C774.461 70.1902 775.291 70.9044 776.003 71.8568C776.478 70.9044 777.19 70.1902 778.139 69.714C777.19 69.2378 776.478 68.5236 776.003 67.5712C775.291 68.5236 774.461 69.2378 773.511 69.714Z" fill="#3BE174"/>
<path d="M776.005 60.072C774.107 57.6912 772.09 55.7865 769.954 54.358C772.09 52.9294 774.107 51.1438 776.005 49.001C777.904 51.1438 780.04 52.9294 782.413 54.358C780.04 55.7865 777.904 57.6912 776.005 60.072Z" fill="#3BE174"/>
<g filter="url(#filter0_f_6_3027)">
<circle cx="810.273" cy="409.5" r="186.955" fill="url(#paint0_linear_6_3027)"/>
</g>
<path d="M804.939 154C804.939 156.945 807.327 159.333 810.272 159.333C813.218 159.333 815.605 156.945 815.605 154C815.605 151.054 813.218 148.666 810.272 148.666C807.327 148.666 804.939 151.054 804.939 154ZM810.272 664C669.716 664 555.772 550.056 555.772 409.5H553.772C553.772 551.161 668.611 666 810.272 666V664ZM555.772 409.5C555.772 268.943 669.716 155 810.272 155V153C668.611 153 553.772 267.839 553.772 409.5H555.772Z" fill="#2CFE75"/>
<defs>
<filter id="filter0_f_6_3027" x="259.319" y="-141.454" width="1101.91" height="1101.91" filterUnits="userSpaceOnUse" color-interpolation-filters="sRGB">
<feFlood flood-opacity="0" result="BackgroundImageFix"/>
<feBlend mode="normal" in="SourceGraphic" in2="BackgroundImageFix" result="shape"/>
<feGaussianBlur stdDeviation="182" result="effect1_foregroundBlur_6_3027"/>
</filter>
<linearGradient id="paint0_linear_6_3027" x1="810.273" y1="222.546" x2="810.273" y2="596.455" gradientUnits="userSpaceOnUse">
<stop stop-color="#43F27F"/>
<stop offset="1" stop-color="#0A772F"/>
</linearGradient>
</defs>
</svg>
