<svg width="2104" height="235" viewBox="0 0 2104 235" fill="none" xmlns="http://www.w3.org/2000/svg">
<rect width="2104" height="235" fill="#10171D"/>
<g filter="url(#filter0_d_1_6)">
<path d="M41 214L42.1289 213.012L41.6807 212.5H41V214ZM44.5 218L43.3711 218.988L43.8193 219.5H44.5V218ZM55.5 218V219.5H56.0703L56.4965 219.121L55.5 218ZM60 214V212.5H59.4297L59.0035 212.879L60 214ZM89 214V215.5H90.5V214H89ZM89 212V210.5H87.5V212H89ZM98 212H99.5V210.5H98V212ZM98 214H96.5V215.5H98V214ZM124 214L125.061 212.939L124.621 212.5H124V214ZM127 217L125.939 218.061L127.233 219.354L128.248 217.832L127 217ZM129 214V212.5H128.197L127.752 213.168L129 214ZM160 214V215.5H161.5V214H160ZM160 212V210.5H158.5V212H160ZM179 212H180.5V210.5H179V212ZM179 214H177.5V215.5H179V214ZM204 214H205.5V212.5H204V214ZM204 216H202.5V217.5H204V216ZM209 216V217.5H210.5V216H209ZM209 214V212.5H207.5V214H209ZM228 214V215.5H228.454L228.832 215.248L228 214ZM231 212L231.671 210.658L230.892 210.269L230.168 210.752L231 212ZM235 214L234.329 215.342L234.646 215.5H235V214ZM256 214H257.5V212.5H256V214ZM256 216H254.5V217.5H256V216ZM270 216V217.5H271.5V216H270ZM270 214V212.5H268.5V214H270ZM311 214V215.5H312.5V214H311ZM311 212V210.5H309.5V212H311ZM317 212H318.5V210.5H317V212ZM317 214H315.5V215.5H317V214ZM330 214H331.5V212.5H330V214ZM330 216H328.5V217.5H330V216ZM334 216V217.5H335.5V216H334ZM334 214V212.5H332.5V214H334ZM350 214V215.5H351.5V214H350ZM350 212V210.5H348.5V212H350ZM353 212H354.5V210.5H353V212ZM353 214H351.5V215.5H353V214ZM372 214V215.5H373.5V214H372ZM372 212V210.5H370.5V212H372ZM385 212H386.5V210.5H385V212ZM385 214H383.5V215.5H385V214ZM413 214H414.5V212.5H413V214ZM413 216H411.5V217.5H413V216ZM417 216V217.5H418.5V216H417ZM417 214V212.5H415.5V214H417ZM427 214V215.5H428.5V214H427ZM427 212V210.5H425.5V212H427ZM431 212H432.5V210.5H431V212ZM431 214H429.5V215.5H431V214ZM455 214V215.5H455.5L455.9 215.2L455 214ZM459 211L459.9 209.8L459 209.125L458.1 209.8L459 211ZM463 214L462.1 215.2L462.5 215.5H463V214ZM484 214L484.9 212.8L484.5 212.5H484V214ZM488 217L487.1 218.2L487.907 218.805L488.772 218.286L488 217ZM493 214V212.5H492.585L492.228 212.714L493 214ZM516 214V215.5H517.5V214H516ZM516 212V210.5H514.5V212H516ZM527 212H528.5V210.5H527V212ZM527 214H525.5V215.5H527V214ZM581 214L582.061 212.939L581.621 212.5H581V214ZM584 217L582.939 218.061L583.859 218.981L584.9 218.2L584 217ZM580 214C580 218.418 583.582 222 588 222C592.418 222 596 218.418 596 214C596 209.582 592.418 206 588 206C583.582 206 580 209.582 580 214ZM24 215.5H41V212.5H24V215.5ZM39.8711 214.988L43.3711 218.988L45.6289 217.012L42.1289 213.012L39.8711 214.988ZM44.5 219.5H55.5V216.5H44.5V219.5ZM56.4965 219.121L60.9965 215.121L59.0035 212.879L54.5035 216.879L56.4965 219.121ZM60 215.5H69.5V212.5H60V215.5ZM69.5 215.5H83V212.5H69.5V215.5ZM83 215.5H89V212.5H83V215.5ZM90.5 214V212H87.5V214H90.5ZM89 213.5H98V210.5H89V213.5ZM96.5 212V214H99.5V212H96.5ZM98 215.5H124V212.5H98V215.5ZM122.939 215.061L125.939 218.061L128.061 215.939L125.061 212.939L122.939 215.061ZM128.248 217.832L130.248 214.832L127.752 213.168L125.752 216.168L128.248 217.832ZM129 215.5H146.5V212.5H129V215.5ZM146.5 215.5H160V212.5H146.5V215.5ZM161.5 214V212H158.5V214H161.5ZM160 213.5H179V210.5H160V213.5ZM177.5 212V214H180.5V212H177.5ZM179 215.5H204V212.5H179V215.5ZM202.5 214V216H205.5V214H202.5ZM204 217.5H209V214.5H204V217.5ZM210.5 216V214H207.5V216H210.5ZM209 215.5H228V212.5H209V215.5ZM228.832 215.248L231.832 213.248L230.168 210.752L227.168 212.752L228.832 215.248ZM230.329 213.342L234.329 215.342L235.671 212.658L231.671 210.658L230.329 213.342ZM235 215.5H256V212.5H235V215.5ZM254.5 214V216H257.5V214H254.5ZM256 217.5H270V214.5H256V217.5ZM271.5 216V214H268.5V216H271.5ZM270 215.5H292V212.5H270V215.5ZM292 215.5H311V212.5H292V215.5ZM312.5 214V212H309.5V214H312.5ZM311 213.5H317V210.5H311V213.5ZM315.5 212V214H318.5V212H315.5ZM317 215.5H330V212.5H317V215.5ZM328.5 214V216H331.5V214H328.5ZM330 217.5H334V214.5H330V217.5ZM335.5 216V214H332.5V216H335.5ZM334 215.5H345V212.5H334V215.5ZM345 215.5H350V212.5H345V215.5ZM351.5 214V212H348.5V214H351.5ZM350 213.5H353V210.5H350V213.5ZM351.5 212V214H354.5V212H351.5ZM353 215.5H372V212.5H353V215.5ZM373.5 214V212H370.5V214H373.5ZM372 213.5H385V210.5H372V213.5ZM383.5 212V214H386.5V212H383.5ZM385 215.5H413V212.5H385V215.5ZM411.5 214V216H414.5V214H411.5ZM413 217.5H417V214.5H413V217.5ZM418.5 216V214H415.5V216H418.5ZM417 215.5H427V212.5H417V215.5ZM428.5 214V212H425.5V214H428.5ZM427 213.5H431V210.5H427V213.5ZM429.5 212V214H432.5V212H429.5ZM431 215.5H455V212.5H431V215.5ZM455.9 215.2L459.9 212.2L458.1 209.8L454.1 212.8L455.9 215.2ZM458.1 212.2L462.1 215.2L463.9 212.8L459.9 209.8L458.1 212.2ZM463 215.5H484V212.5H463V215.5ZM483.1 215.2L487.1 218.2L488.9 215.8L484.9 212.8L483.1 215.2ZM488.772 218.286L493.772 215.286L492.228 212.714L487.228 215.714L488.772 218.286ZM493 215.5H516V212.5H493V215.5ZM517.5 214V212H514.5V214H517.5ZM516 213.5H527V210.5H516V213.5ZM525.5 212V214H528.5V212H525.5ZM527 215.5H581V212.5H527V215.5ZM579.939 215.061L582.939 218.061L585.061 215.939L582.061 212.939L579.939 215.061ZM584.9 218.2L588.9 215.2L587.1 212.8L583.1 215.8L584.9 218.2Z" fill="#2CFE75"/>
</g>
<defs>
<filter id="filter0_d_1_6" x="13" y="195" width="594" height="38" filterUnits="userSpaceOnUse" color-interpolation-filters="sRGB">
<feFlood flood-opacity="0" result="BackgroundImageFix"/>
<feColorMatrix in="SourceAlpha" type="matrix" values="0 0 0 0 0 0 0 0 0 0 0 0 0 0 0 0 0 0 127 0" result="hardAlpha"/>
<feOffset/>
<feGaussianBlur stdDeviation="5.5"/>
<feComposite in2="hardAlpha" operator="out"/>
<feColorMatrix type="matrix" values="0 0 0 0 0.40276 0 0 0 0 0.870833 0 0 0 0 0.563951 0 0 0 1 0"/>
<feBlend mode="normal" in2="BackgroundImageFix" result="effect1_dropShadow_1_6"/>
<feBlend mode="normal" in="SourceGraphic" in2="effect1_dropShadow_1_6" result="shape"/>
</filter>
</defs>
</svg>
