<svg width="352" height="40" viewBox="0 0 352 40" fill="none" xmlns="http://www.w3.org/2000/svg">
<path d="M189.536 19.9983C189.061 19.7602 188.705 19.5221 188.468 19.284C187.993 19.284 187.637 19.165 187.4 18.9269C186.925 18.6888 186.569 18.4507 186.332 18.2126C185.858 17.9745 185.502 17.7364 185.264 17.4984C185.027 17.2603 184.671 17.0222 184.196 16.7841C183.959 16.7841 183.722 16.665 183.484 16.4269C183.01 16.1889 182.654 15.8317 182.416 15.3555C182.179 15.1175 181.942 14.8794 181.704 14.6413C181.467 14.4032 181.111 14.1651 180.636 13.927L179.924 13.2128C179.687 12.9747 179.45 12.7366 179.212 12.4985L178.5 11.4271L177.788 10.7129L177.076 9.99855L176.72 8.9272L176.008 8.21289L176.364 8.9272L176.72 9.99855L177.432 10.7129L178.144 11.7842C178.144 12.0223 178.263 12.2604 178.5 12.4985C178.738 12.9747 178.975 13.3318 179.212 13.5699C179.45 13.808 179.687 14.0461 179.924 14.2842C180.162 14.5223 180.399 14.8794 180.636 15.3555C181.111 15.5936 181.467 15.8318 181.704 16.0698C181.942 16.3079 182.179 16.546 182.416 16.7841C182.891 17.0222 183.247 17.2603 183.484 17.4984C183.722 17.7364 184.078 17.9745 184.552 18.2126C184.79 18.4507 185.146 18.6888 185.62 18.9269C185.858 19.165 186.213 19.4031 186.688 19.6412C186.925 19.8793 187.281 19.9983 187.756 19.9983C187.756 20.2364 187.875 20.3554 188.112 20.3554C187.875 20.3554 187.756 20.3554 187.756 20.3554C187.281 20.5935 186.925 20.8316 186.688 21.0697C186.213 21.3078 185.858 21.5458 185.62 21.7839C185.146 22.022 184.79 22.2601 184.552 22.4982C184.078 22.7363 183.722 22.9744 183.484 23.2125C183.247 23.4506 183.01 23.6887 182.772 23.9267C182.298 24.1648 181.942 24.4029 181.704 24.641C181.467 24.8791 181.23 25.1172 180.992 25.3553C180.755 25.5933 180.518 25.9505 180.28 26.4267C180.043 26.6648 179.806 26.9028 179.568 27.1409C179.331 27.379 179.094 27.6171 178.856 27.8552C178.619 28.3313 178.382 28.6885 178.144 28.9266C177.907 29.1647 177.67 29.4027 177.432 29.6408C177.432 30.117 177.314 30.4742 177.076 30.7122C176.839 30.9503 176.602 31.1884 176.364 31.4265L176.008 32.4979C176.483 32.0217 176.958 31.4265 177.432 30.7122C177.67 30.4742 177.907 30.2361 178.144 29.998C178.382 29.7599 178.619 29.4028 178.856 28.9266C179.331 28.4504 179.806 27.9742 180.28 27.4981C180.518 27.26 180.755 27.0219 180.992 26.7838C181.23 26.5457 181.467 26.3076 181.704 26.0695C181.942 25.5933 182.298 25.2362 182.772 24.9982C183.01 24.7601 183.247 24.5219 183.484 24.2838C183.722 24.0458 184.078 23.8077 184.552 23.5696C184.79 23.3315 185.027 23.0934 185.264 22.8553C185.739 22.8553 186.095 22.7363 186.332 22.4982C186.569 22.2601 186.925 22.022 187.4 21.7839C187.637 21.5458 187.993 21.3078 188.468 21.0697C188.943 21.0697 189.299 20.9506 189.536 20.7125C189.536 20.7125 189.655 20.7125 189.892 20.7125C189.892 20.3554 189.892 19.9983 189.536 19.9983Z" fill="#3BE174"/>
<path fill-rule="evenodd" clip-rule="evenodd" d="M176.001 32.8567C175.764 32.6186 175.645 32.4995 175.645 32.4995L176.001 31.4281C176.238 31.19 176.357 30.952 176.357 30.7139H176.713C176.713 30.4758 176.832 30.2377 177.069 29.9996C177.069 29.7615 177.069 29.6425 177.069 29.6425C177.306 29.4044 177.425 29.1663 177.425 28.9282H177.781C178.018 28.6901 178.137 28.452 178.137 28.214L178.493 27.8568C178.73 27.6187 178.968 27.3806 179.205 27.1425C179.442 26.6664 179.68 26.3092 179.917 26.0711C180.154 25.8331 180.391 25.595 180.629 25.3569C180.866 25.1188 181.103 24.8807 181.341 24.6426C181.578 24.1665 181.934 23.8093 182.409 23.5712C182.646 23.3331 182.883 23.0951 183.121 22.857C183.358 22.6189 183.714 22.3808 184.189 22.1427C184.426 21.9046 184.663 21.7856 184.901 21.7856L185.257 21.4285C185.494 21.4285 185.731 21.3094 185.969 21.0713C185.969 21.0713 186.087 20.9522 186.325 20.7142C186.562 20.7142 186.799 20.5951 187.037 20.3571C186.799 20.119 186.562 19.8809 186.325 19.6428C186.087 19.6428 185.969 19.6428 185.969 19.6428C185.731 19.4047 185.494 19.2856 185.257 19.2856C185.019 19.0476 184.901 18.9285 184.901 18.9285C184.663 18.6904 184.426 18.5714 184.189 18.5714C183.951 18.3333 183.833 18.2142 183.833 18.2142C183.595 17.9762 183.358 17.8571 183.121 17.8571C183.121 17.6191 183.002 17.5 182.765 17.5C182.527 17.2619 182.29 17.0238 182.053 16.7857C182.053 16.7857 181.934 16.7857 181.697 16.7857C181.697 16.5476 181.578 16.3096 181.341 16.0715C181.103 16.0715 180.985 16.0715 180.985 16.0715C180.748 15.8334 180.51 15.5953 180.273 15.3572C180.273 15.3572 180.273 15.2382 180.273 15.0001C180.036 14.762 179.798 14.6429 179.561 14.6429C179.561 14.4048 179.561 14.2858 179.561 14.2858C179.324 14.0477 179.086 13.8096 178.849 13.5715C178.849 13.5715 178.849 13.4525 178.849 13.2144C178.612 13.2144 178.374 13.0953 178.137 12.8573V12.5002C177.9 12.2621 177.662 12.0239 177.425 11.7858L177.069 11.0716L176.357 10.0002L176.001 9.28593L175.645 8.21452C175.645 7.97643 175.764 7.85742 176.001 7.85742C176.238 7.85742 176.357 7.85742 176.357 7.85742L177.069 8.92883L177.425 9.64308L178.137 10.7145L178.849 11.4287L179.561 12.143C179.798 12.3811 179.917 12.6192 179.917 12.8573C180.154 12.8573 180.273 12.9763 180.273 13.2144L180.985 13.9287C181.222 13.9287 181.459 14.0477 181.697 14.2858C181.697 14.2858 181.815 14.4048 182.053 14.6429C182.053 14.881 182.171 15.0001 182.409 15.0001C182.646 15.2382 182.765 15.3572 182.765 15.3572C183.002 15.5953 183.239 15.7143 183.477 15.7143C183.477 15.9524 183.595 16.0715 183.833 16.0715C183.833 16.3096 183.951 16.4286 184.189 16.4286C184.426 16.6667 184.545 16.7857 184.545 16.7857C184.782 16.7857 185.019 16.9047 185.257 17.1428C185.257 17.1428 185.375 17.2619 185.613 17.5C185.85 17.5 186.087 17.6191 186.325 17.8571C186.325 17.8571 186.443 17.8571 186.681 17.8571C186.918 18.0952 187.037 18.3333 187.037 18.5714C187.274 18.5714 187.511 18.5714 187.749 18.5714C187.749 18.8095 187.867 18.9285 188.105 18.9285C188.342 18.9285 188.579 19.0476 188.817 19.2856C188.817 19.2856 188.935 19.2856 189.173 19.2856C189.41 19.5237 189.647 19.6428 189.885 19.6428C190.122 19.8809 190.241 19.9999 190.241 19.9999C190.241 20.238 190.241 20.4761 190.241 20.7142C190.003 20.7142 189.885 20.8332 189.885 21.0713C189.647 21.0713 189.529 21.0713 189.529 21.0713C189.291 21.3094 189.054 21.4285 188.817 21.4285C188.579 21.4285 188.461 21.5475 188.461 21.7856C188.223 21.7856 187.986 21.9046 187.749 22.1427C187.511 22.1427 187.393 22.1427 187.393 22.1427C187.155 22.3808 186.918 22.4998 186.681 22.4998C186.443 22.7379 186.325 22.857 186.325 22.857C186.087 22.857 185.85 22.976 185.613 23.2141C185.375 23.4522 185.019 23.6903 184.545 23.9284C184.307 24.1665 184.07 24.4045 183.833 24.6426C183.595 24.8807 183.239 25.1188 182.765 25.3569C182.527 25.595 182.29 25.8331 182.053 26.0711C181.815 26.3092 181.578 26.5474 181.341 26.7854C181.103 27.0235 180.866 27.2616 180.629 27.4997C180.154 27.9759 179.68 28.5711 179.205 29.2854L178.849 29.6425C178.612 29.6425 178.493 29.7615 178.493 29.9996C178.256 30.2377 178.137 30.3568 178.137 30.3568C177.9 30.5949 177.781 30.8329 177.781 31.071C177.306 31.5472 176.832 32.0234 176.357 32.4995C176.357 32.7376 176.238 32.8567 176.001 32.8567ZM179.561 13.5715C179.798 13.5715 180.036 13.6906 180.273 13.9287C180.273 13.9287 180.273 14.0477 180.273 14.2858C180.51 14.5239 180.748 14.6429 180.985 14.6429C180.985 14.881 180.985 15.0001 180.985 15.0001C181.222 15.2382 181.459 15.4762 181.697 15.7143C181.697 15.7143 181.815 15.7143 182.053 15.7143C182.29 15.9524 182.409 16.1905 182.409 16.4286C182.646 16.4286 182.765 16.4286 182.765 16.4286C183.002 16.6667 183.239 16.9047 183.477 17.1428C183.477 17.1428 183.595 17.2619 183.833 17.5C184.07 17.5 184.307 17.6191 184.545 17.8571C184.545 17.8571 184.663 17.8571 184.901 17.8571C184.901 18.0952 185.019 18.3333 185.257 18.5714C185.494 18.5714 185.613 18.5714 185.613 18.5714C185.85 18.8095 186.087 18.9285 186.325 18.9285C186.562 19.1666 186.681 19.2856 186.681 19.2856C186.918 19.5237 187.155 19.6428 187.393 19.6428C187.63 19.6428 187.867 19.7618 188.105 19.9999H188.461C188.461 19.9999 188.461 20.119 188.461 20.3571C188.461 20.3571 188.461 20.4761 188.461 20.7142H188.105C187.867 20.7142 187.749 20.8332 187.749 21.0713C187.274 21.0713 187.037 21.1904 187.037 21.4285C186.799 21.4285 186.562 21.4285 186.325 21.4285C186.087 21.6666 185.969 21.7856 185.969 21.7856L185.613 22.1427C185.375 22.3808 185.138 22.4998 184.901 22.4998L184.545 22.857C184.307 22.857 184.07 22.976 183.833 23.2141C183.595 23.4522 183.358 23.6903 183.121 23.9284C182.646 24.1665 182.29 24.5236 182.053 24.9998C181.815 25.2379 181.578 25.476 181.341 25.714C181.578 25.476 181.934 25.2379 182.409 24.9998C182.646 24.7617 182.883 24.5236 183.121 24.2855C183.358 24.0474 183.714 23.8093 184.189 23.5712C184.426 23.3331 184.663 23.0951 184.901 22.857C185.138 22.6189 185.375 22.4998 185.613 22.4998C185.85 22.2617 185.969 22.1427 185.969 22.1427C186.206 21.9046 186.443 21.7856 186.681 21.7856C186.918 21.7856 187.037 21.6666 187.037 21.4285C187.274 21.4285 187.511 21.3094 187.749 21.0713C187.986 21.0713 188.105 21.0713 188.105 21.0713C188.342 20.8332 188.579 20.7142 188.817 20.7142C189.054 20.4761 189.173 20.3571 189.173 20.3571C189.41 20.3571 189.529 20.3571 189.529 20.3571C189.529 20.3571 189.41 20.238 189.173 19.9999C189.173 19.9999 189.054 19.9999 188.817 19.9999C188.579 19.7618 188.342 19.6428 188.105 19.6428C188.105 19.6428 187.986 19.5237 187.749 19.2856C187.511 19.2856 187.274 19.1666 187.037 18.9285C187.037 18.9285 186.918 18.9285 186.681 18.9285C186.443 18.6904 186.206 18.5714 185.969 18.5714C185.969 18.3333 185.85 18.2142 185.613 18.2142C185.375 18.2142 185.138 18.0952 184.901 17.8571C184.901 17.8571 184.782 17.7381 184.545 17.5C184.307 17.5 184.07 17.3809 183.833 17.1428C183.833 17.1428 183.714 17.0238 183.477 16.7857C183.477 16.7857 183.358 16.6667 183.121 16.4286C182.883 16.4286 182.765 16.3096 182.765 16.0715C182.527 16.0715 182.29 15.9524 182.053 15.7143C182.053 15.7143 181.934 15.5953 181.697 15.3572C181.697 15.3572 181.578 15.2382 181.341 15.0001C181.103 14.762 180.985 14.6429 180.985 14.6429C180.748 14.4048 180.51 14.2858 180.273 14.2858L179.561 13.5715Z" fill="#3BE174"/>
<path d="M162.12 19.9983C162.594 19.7602 163.069 19.5221 163.544 19.284C163.781 19.284 164.137 19.165 164.612 18.9269C164.849 18.6888 165.205 18.4507 165.68 18.2126C165.917 17.9745 166.273 17.7364 166.748 17.4984C166.985 17.2603 167.222 17.0222 167.46 16.7841C167.934 16.7841 168.29 16.665 168.528 16.4269C168.765 16.1889 169.002 15.8317 169.24 15.3555C169.714 15.1175 170.07 14.8794 170.308 14.6413C170.545 14.4032 170.782 14.1651 171.02 13.927L171.731 13.2128C171.969 12.9747 172.206 12.7366 172.443 12.4985L173.155 11.4271L173.867 10.7129L174.579 9.99855L175.291 8.9272L174.935 9.99855L174.579 10.7129L173.867 11.7842C173.63 12.0223 173.393 12.2604 173.155 12.4985C172.918 12.9747 172.681 13.3318 172.443 13.5699C172.206 13.808 171.969 14.0461 171.731 14.2842C171.494 14.5223 171.257 14.8794 171.02 15.3555C170.782 15.5936 170.545 15.8318 170.308 16.0698C170.07 16.3079 169.714 16.546 169.24 16.7841C169.002 17.0222 168.765 17.2603 168.528 17.4984C168.053 17.7364 167.697 17.9745 167.46 18.2126C166.985 18.4507 166.629 18.6888 166.392 18.9269C165.917 19.165 165.561 19.4031 165.324 19.6412C164.849 19.8793 164.493 19.9983 164.256 19.9983C164.018 20.2364 163.9 20.3554 163.9 20.3554C163.9 20.3554 164.018 20.3554 164.256 20.3554C164.493 20.5935 164.849 20.8316 165.324 21.0697C165.561 21.3078 165.917 21.5458 166.392 21.7839C166.629 22.022 166.985 22.2601 167.46 22.4982C167.697 22.7363 167.934 22.9744 168.172 23.2125C168.646 23.4506 169.002 23.6887 169.24 23.9267C169.477 24.1648 169.714 24.4029 169.952 24.641C170.426 24.8791 170.782 25.1172 171.02 25.3553C171.257 25.5933 171.494 25.9505 171.731 26.4267C171.969 26.6648 172.206 26.9028 172.443 27.1409C172.681 27.379 172.918 27.6171 173.155 27.8552C173.393 28.3313 173.511 28.6885 173.511 28.9266C173.749 29.1647 173.986 29.4027 174.223 29.6408C174.461 30.117 174.698 30.4742 174.935 30.7122C174.935 30.9503 175.054 31.1884 175.291 31.4265L175.647 32.4979C175.41 32.0217 175.054 31.4265 174.579 30.7122C174.342 30.4742 174.105 30.2361 173.867 29.998C173.63 29.7599 173.393 29.4028 173.155 28.9266C172.681 28.4504 172.206 27.9742 171.731 27.4981C171.494 27.26 171.257 27.0219 171.02 26.7838C170.782 26.5457 170.426 26.3076 169.952 26.0695C169.714 25.5933 169.477 25.2362 169.24 24.9982C169.002 24.7601 168.765 24.5219 168.528 24.2838C168.053 24.0458 167.697 23.8077 167.46 23.5696C167.222 23.3315 166.866 23.0934 166.392 22.8553C166.154 22.8553 165.917 22.7363 165.68 22.4982C165.205 22.2601 164.849 22.022 164.612 21.7839C164.137 21.5458 163.781 21.3078 163.544 21.0697C163.069 21.0697 162.594 20.9506 162.12 20.7125C161.764 20.3554 162.12 19.9983 162.12 19.9983Z" fill="#3BE174"/>
<path fill-rule="evenodd" clip-rule="evenodd" d="M175.646 32.8567C175.646 32.8567 175.528 32.7376 175.29 32.4995C175.053 32.0234 174.697 31.5472 174.222 31.071C173.985 30.8329 173.866 30.5949 173.866 30.3568C173.629 30.3568 173.51 30.2377 173.51 29.9996C173.273 29.7615 173.154 29.6425 173.154 29.6425L172.798 29.2854C172.324 28.5711 171.849 27.9759 171.374 27.4997C171.137 27.2616 170.9 27.0235 170.662 26.7854C170.425 26.5474 170.069 26.3092 169.595 26.0711C169.357 25.8331 169.12 25.595 168.882 25.3569C168.645 25.1188 168.408 24.8807 168.171 24.6426C167.933 24.4045 167.577 24.1665 167.103 23.9284C166.865 23.6903 166.628 23.4522 166.391 23.2141H166.035C166.035 22.976 165.916 22.857 165.679 22.857C165.441 22.857 165.323 22.7379 165.323 22.4998C165.085 22.4998 164.848 22.3808 164.611 22.1427C164.373 22.1427 164.255 22.1427 164.255 22.1427C164.017 21.9046 163.78 21.7856 163.543 21.7856C163.305 21.5475 163.187 21.4285 163.187 21.4285C162.949 21.4285 162.712 21.3094 162.475 21.0713C162.237 21.0713 162.119 21.0713 162.119 21.0713C161.881 20.8332 161.763 20.7142 161.763 20.7142C161.525 20.4761 161.407 20.238 161.407 19.9999C161.644 19.9999 161.881 19.8809 162.119 19.6428C162.119 19.6428 162.237 19.5237 162.475 19.2856C162.712 19.2856 162.949 19.2856 163.187 19.2856C163.187 19.0476 163.305 18.9285 163.543 18.9285C163.78 18.9285 164.017 18.8095 164.255 18.5714C164.255 18.5714 164.373 18.5714 164.611 18.5714C164.848 18.3333 165.085 18.0952 165.323 17.8571C165.323 17.8571 165.441 17.8571 165.679 17.8571C165.916 17.6191 166.153 17.5 166.391 17.5C166.391 17.2619 166.509 17.1428 166.747 17.1428C166.984 16.9047 167.103 16.7857 167.103 16.7857C167.34 16.7857 167.459 16.6667 167.459 16.4286C167.696 16.4286 167.933 16.3096 168.171 16.0715C168.171 16.0715 168.289 15.9524 168.527 15.7143C168.764 15.7143 168.882 15.5953 168.882 15.3572C169.12 15.3572 169.238 15.2382 169.238 15.0001C169.476 15.0001 169.713 14.881 169.95 14.6429C169.95 14.4048 170.069 14.2858 170.306 14.2858C170.306 14.0477 170.425 13.9287 170.662 13.9287L171.374 13.2144C171.612 12.9763 171.73 12.8573 171.73 12.8573C171.968 12.6192 172.086 12.3811 172.086 12.143L172.798 11.4287L173.51 10.7145L174.222 9.64308L174.934 8.92883L175.29 7.85742C175.528 7.85742 175.765 7.85742 176.002 7.85742C176.24 7.85742 176.358 7.97643 176.358 8.21452L175.646 9.28593L175.29 10.0002L174.934 11.0716L174.222 11.7858C173.985 12.0239 173.866 12.2621 173.866 12.5002L173.51 12.8573C173.51 13.0953 173.392 13.2144 173.154 13.2144C173.154 13.4525 173.036 13.5715 172.798 13.5715C172.798 13.8096 172.68 14.0477 172.442 14.2858C172.442 14.2858 172.324 14.4048 172.086 14.6429C172.086 14.6429 171.968 14.762 171.73 15.0001C171.493 15.2382 171.374 15.3572 171.374 15.3572C171.137 15.5953 171.018 15.8334 171.018 16.0715C170.781 16.0715 170.662 16.0715 170.662 16.0715C170.425 16.3096 170.188 16.5476 169.95 16.7857C169.95 16.7857 169.832 16.7857 169.595 16.7857C169.357 17.0238 169.12 17.2619 168.882 17.5C168.882 17.5 168.882 17.6191 168.882 17.8571C168.645 17.8571 168.408 17.9762 168.171 18.2142C167.933 18.2142 167.815 18.3333 167.815 18.5714C167.577 18.5714 167.34 18.6904 167.103 18.9285C166.865 18.9285 166.747 19.0476 166.747 19.2856C166.509 19.2856 166.272 19.4047 166.035 19.6428C165.797 19.6428 165.679 19.6428 165.679 19.6428C165.441 19.8809 165.085 20.119 164.611 20.3571C164.848 20.5951 165.204 20.7142 165.679 20.7142C165.679 20.9522 165.797 21.0713 166.035 21.0713C166.272 21.3094 166.509 21.4285 166.747 21.4285V21.7856C166.984 21.7856 167.34 21.9046 167.815 22.1427C168.052 22.3808 168.289 22.6189 168.527 22.857C169.001 23.0951 169.357 23.3331 169.595 23.5712C169.832 23.8093 170.069 24.1665 170.306 24.6426C170.781 24.8807 171.137 25.1188 171.374 25.3569C171.612 25.595 171.849 25.8331 172.086 26.0711C172.324 26.3092 172.561 26.6664 172.798 27.1425C173.036 27.3806 173.273 27.6187 173.51 27.8568V28.214C173.748 28.452 173.985 28.6901 174.222 28.9282C174.46 29.1663 174.578 29.4044 174.578 29.6425C174.816 29.6425 174.934 29.7615 174.934 29.9996C174.934 30.2377 175.053 30.4758 175.29 30.7139C175.528 30.952 175.646 31.19 175.646 31.4281L176.358 32.4995C176.358 32.4995 176.24 32.6186 176.002 32.8567C176.002 32.8567 175.884 32.8567 175.646 32.8567ZM172.086 13.5715L171.374 14.2858C171.137 14.2858 171.018 14.4048 171.018 14.6429C170.781 14.881 170.662 15.0001 170.662 15.0001C170.425 15.2382 170.188 15.3572 169.95 15.3572C169.95 15.5953 169.832 15.7143 169.595 15.7143C169.595 15.9524 169.476 16.0715 169.238 16.0715C169.001 16.3096 168.882 16.4286 168.882 16.4286C168.645 16.6667 168.408 16.7857 168.171 16.7857C168.171 17.0238 168.052 17.1428 167.815 17.1428C167.577 17.3809 167.34 17.5 167.103 17.5C167.103 17.7381 166.984 17.8571 166.747 17.8571C166.509 18.0952 166.272 18.2142 166.035 18.2142C166.035 18.2142 165.916 18.3333 165.679 18.5714C165.679 18.5714 165.56 18.6904 165.323 18.9285C165.085 18.9285 164.848 18.9285 164.611 18.9285C164.373 19.1666 164.136 19.2856 163.899 19.2856C163.899 19.5237 163.78 19.6428 163.543 19.6428C163.305 19.6428 163.068 19.7618 162.831 19.9999C162.831 19.9999 162.712 19.9999 162.475 19.9999C162.475 20.238 162.475 20.3571 162.475 20.3571C162.712 20.3571 162.831 20.4761 162.831 20.7142C163.068 20.7142 163.305 20.8332 163.543 21.0713C163.78 21.0713 163.899 21.0713 163.899 21.0713C164.136 21.3094 164.373 21.4285 164.611 21.4285C164.848 21.6666 164.967 21.7856 164.967 21.7856C165.204 21.7856 165.441 21.9046 165.679 22.1427C165.916 22.1427 166.035 22.2617 166.035 22.4998C166.272 22.4998 166.509 22.6189 166.747 22.857C167.221 23.0951 167.577 23.3331 167.815 23.5712C168.052 23.8093 168.289 24.0474 168.527 24.2855C169.001 24.5236 169.357 24.7617 169.595 24.9998C169.832 25.2379 170.069 25.476 170.306 25.714C170.781 25.9521 171.137 26.1902 171.374 26.4283C171.137 26.1902 170.9 25.9521 170.662 25.714C170.425 25.476 170.069 25.2379 169.595 24.9998C169.357 24.5236 169.12 24.1665 168.882 23.9284C168.645 23.6903 168.408 23.4522 168.171 23.2141C167.696 22.976 167.34 22.857 167.103 22.857V22.4998C166.865 22.4998 166.628 22.3808 166.391 22.1427L166.035 21.7856C165.797 21.7856 165.56 21.6666 165.323 21.4285C165.323 21.4285 165.204 21.4285 164.967 21.4285C164.729 21.1904 164.492 21.0713 164.255 21.0713C164.017 20.8332 163.899 20.7142 163.899 20.7142C163.899 20.7142 163.78 20.7142 163.543 20.7142C163.305 20.4761 163.187 20.3571 163.187 20.3571C163.187 20.119 163.305 19.9999 163.543 19.9999C163.78 19.9999 163.899 19.9999 163.899 19.9999C163.899 19.7618 164.017 19.6428 164.255 19.6428C164.492 19.6428 164.729 19.5237 164.967 19.2856C165.204 19.2856 165.323 19.1666 165.323 18.9285C165.56 18.9285 165.797 18.8095 166.035 18.5714C166.272 18.5714 166.391 18.5714 166.391 18.5714C166.628 18.3333 166.865 18.0952 167.103 17.8571C167.103 17.8571 167.221 17.8571 167.459 17.8571C167.696 17.6191 167.933 17.5 168.171 17.5C168.171 17.2619 168.289 17.1428 168.527 17.1428C168.764 16.9047 168.882 16.6667 168.882 16.4286C169.12 16.4286 169.238 16.4286 169.238 16.4286C169.476 16.1905 169.713 15.9524 169.95 15.7143C169.95 15.7143 170.069 15.7143 170.306 15.7143C170.306 15.4762 170.425 15.2382 170.662 15.0001C170.662 15.0001 170.781 14.881 171.018 14.6429C171.256 14.6429 171.374 14.5239 171.374 14.2858C171.612 14.0477 171.73 13.9287 171.73 13.9287C171.73 13.6906 171.849 13.5715 172.086 13.5715Z" fill="#3BE174"/>
<path d="M182.064 29.9977C181.826 29.9977 181.708 29.9977 181.708 29.9977C181.708 29.9977 181.708 29.8787 181.708 29.6406C183.844 27.2597 186.217 25.236 188.827 23.5693C188.827 23.5693 188.946 23.5693 189.183 23.5693C186.573 25.474 184.2 27.6168 182.064 29.9977Z" fill="#3BE174"/>
<path d="M162.118 17.8565C161.881 17.8565 161.762 17.8565 161.762 17.8565C164.847 15.9518 167.695 13.5709 170.306 10.7139C170.306 10.7139 170.425 10.7139 170.662 10.7139C168.051 13.5709 165.203 15.9518 162.118 17.8565Z" fill="#3BE174"/>
<path d="M188.816 17.1422C185.968 15.4756 183.476 13.3328 181.34 10.7139C181.578 10.7139 181.696 10.7139 181.696 10.7139C183.832 13.0947 186.324 15.2375 189.172 17.1422C189.172 17.1422 189.054 17.1422 188.816 17.1422Z" fill="#3BE174"/>
<path d="M169.95 30.0001C167.339 27.143 164.61 24.8812 161.762 23.2146C161.762 22.9765 161.762 22.8574 161.762 22.8574C161.999 22.8574 162.118 22.8574 162.118 22.8574C164.966 24.7621 167.695 27.0239 170.306 29.6429C170.306 29.881 170.306 30.0001 170.306 30.0001C170.306 30.0001 170.187 30.0001 169.95 30.0001Z" fill="#3BE174"/>
<path fill-rule="evenodd" clip-rule="evenodd" d="M328.36 21.4275C328.123 21.4275 328.004 21.4275 328.004 21.4275L327.648 21.0704L326.936 20.3561C326.699 20.3561 326.699 20.2371 326.936 19.999L327.648 19.6419L328.004 19.2847C328.004 19.0466 328.123 18.9276 328.36 18.9276L351.144 19.999C351.381 19.999 351.5 20.118 351.5 20.3561C351.5 20.3561 351.381 20.3561 351.144 20.3561L328.36 21.4275ZM328.004 20.7132L328.36 21.0704L345.804 20.3561L328.36 19.6419L328.004 19.999L327.648 20.3561L328.004 20.7132Z" fill="#3BE174"/>
<path d="M322.667 20.3573C320.887 20.3573 322.311 20.3573 321.955 20.3573C321.718 20.3573 321.599 20.2382 321.599 20.0001C321.599 20.0001 321.599 20.0001 321.243 20.0001H320.887H319.108H315.192H308.072L293.12 19.643L263.929 19.2859L204.834 18.5716H205.902L201.63 20.3573L201.274 20.0001L204.122 17.1431L204.478 16.786H204.834L263.929 18.2145L293.12 18.9287L308.072 19.2859H315.192H319.108H320.887H321.243H321.599C321.837 19.2859 321.955 19.4049 321.955 19.643C322.193 19.643 322.311 19.762 322.311 20.0001C322.549 20.0001 322.667 20.0001 322.667 20.0001C322.667 20.0001 322.667 20.1192 322.667 20.3573C322.311 20.3573 323.379 20.3573 321.955 20.3573H322.667Z" fill="#3BE174"/>
<path d="M321.955 20.3573C323.379 20.3573 322.311 20.3573 322.667 20.3573C322.667 20.5953 322.667 20.7143 322.667 20.7143C322.667 20.7143 322.549 20.8334 322.311 21.0715C322.311 21.0715 322.193 21.0715 321.955 21.0715C321.955 21.3096 321.837 21.4287 321.599 21.4287H321.243H320.887H319.108H315.192L308.072 21.7858H293.12L263.929 22.5L204.834 23.9286H204.478L204.122 23.5714L201.274 20.7143L201.63 20.3573L205.902 22.5L204.834 22.1429L263.929 21.4287L293.12 21.0715L308.072 20.7143H315.192H319.108H320.887H321.243C321.599 20.7143 321.599 20.7143 321.599 20.7143C321.599 20.7143 321.718 20.5953 321.955 20.3573C322.311 20.3573 320.887 20.3573 322.667 20.3573H321.955Z" fill="#3BE174"/>
<path d="M324.45 22.1412L321.602 20.3555L324.45 18.2127L327.298 20.3555L324.45 22.1412Z" fill="#3BE174"/>
<path fill-rule="evenodd" clip-rule="evenodd" d="M195.577 26.7851L195.221 25.7137C193.56 23.3328 191.661 21.6661 189.525 20.7138L188.813 20.3567L189.525 19.9995C192.017 18.9281 193.797 17.1425 195.221 14.6425L195.577 13.5711L196.289 14.6425C197.357 17.1425 199.493 18.9281 201.629 19.9995L202.697 20.3567L201.629 20.7138C199.493 21.6661 197.713 23.3328 196.289 25.7137L195.577 26.7851ZM190.949 20.3567C192.61 21.309 194.153 22.7375 195.577 24.6422C196.763 22.7375 198.306 21.309 200.205 20.3567C198.425 19.2853 196.645 17.8567 195.577 16.0711C194.509 17.8567 192.729 19.2853 190.949 20.3567Z" fill="#3BE174"/>
<path fill-rule="evenodd" clip-rule="evenodd" d="M23.9958 21.4275C23.9958 21.4275 23.8771 21.4275 23.6398 21.4275L0.856265 20.3561C0.618937 20.3561 0.500305 20.3561 0.500305 20.3561C0.500305 20.118 0.618937 19.999 0.856265 19.999L23.6398 18.9276C23.8771 18.9276 23.9958 19.0466 23.9958 19.2847L24.3518 19.6419L25.0637 19.999C25.3011 20.2371 25.3011 20.3561 25.0637 20.3561L24.3518 21.0704L23.9958 21.4275ZM6.19615 20.3561L23.6398 21.0704L23.9958 20.7132L24.3518 20.3561L23.9958 19.999L23.6398 19.6419L6.19615 20.3561Z" fill="#3BE174"/>
<path d="M30.412 20.3573C28.6321 20.3573 29.7 20.3573 29.3441 20.3573C29.3441 20.1192 29.3441 20.0001 29.3441 20.0001C29.3441 20.0001 29.4627 20.0001 29.7001 20.0001C29.7001 19.762 29.8187 19.643 30.056 19.643C30.2934 19.4049 30.412 19.2859 30.412 19.2859C30.412 19.2859 30.5307 19.2859 30.7681 19.2859H31.124H32.904H36.8199H43.9398L58.8914 18.9287L88.0828 18.2145L147.177 16.786H147.889V17.1431L151.093 20.0001L150.381 20.3573L146.109 18.5716H147.177L88.4388 19.2859L58.8914 19.643L43.9398 20.0001H36.8199H32.904H31.124H30.7681C30.4121 20.0001 30.412 20.0001 30.412 20.0001C30.412 20.2382 30.412 20.3573 30.412 20.3573C30.0561 20.3573 31.124 20.3573 29.3441 20.3573H30.412Z" fill="#3BE174"/>
<path d="M29.3441 20.3573C31.124 20.3573 30.0561 20.3573 30.412 20.3573C30.412 20.5953 30.412 20.7143 30.412 20.7143C30.412 20.7143 30.4121 20.7143 30.7681 20.7143H31.124H32.904H36.8199H43.9398L58.8914 21.0715L88.4388 21.4287L147.177 22.1429L146.109 22.5L150.381 20.3573L151.093 20.7143L147.889 23.5714V23.9286H147.177L88.0828 22.5L58.8914 21.7858H43.9398L36.8199 21.4287H32.904H31.124H30.7681C30.5307 21.4287 30.412 21.4287 30.412 21.4287C30.412 21.4287 30.2934 21.3096 30.056 21.0715C29.8187 21.0715 29.7001 21.0715 29.7001 21.0715C29.4627 20.8334 29.3441 20.7143 29.3441 20.7143C29.3441 20.7143 29.3441 20.5953 29.3441 20.3573C29.7 20.3573 28.6321 20.3573 30.412 20.3573H29.3441Z" fill="#3BE174"/>
<path d="M27.551 22.1412L30.3989 20.3555L27.551 18.2127L25.059 20.3555L27.551 22.1412Z" fill="#3BE174"/>
<path fill-rule="evenodd" clip-rule="evenodd" d="M156.429 26.7851L155.717 25.7137C154.293 23.3328 152.513 21.6661 150.377 20.7138L149.309 20.3567L150.377 19.9995C152.513 18.9281 154.649 17.1425 155.717 14.6425L156.429 13.5711L157.141 14.6425C158.209 17.1425 160.345 18.9281 162.481 19.9995L163.549 20.3567L162.481 20.7138C160.345 21.6661 158.565 23.3328 157.141 25.7137L156.429 26.7851ZM151.801 20.3567C153.462 21.309 155.005 22.7375 156.429 24.6422C157.616 22.7375 159.158 21.309 161.057 20.3567C158.921 19.2853 157.497 17.8567 156.429 16.0711C155.005 17.8567 153.581 19.2853 151.801 20.3567Z" fill="#3BE174"/>
<path fill-rule="evenodd" clip-rule="evenodd" d="M176.003 8.57115L175.291 7.49975C174.579 6.30931 173.63 5.35694 172.443 4.64268L171.375 4.28558L172.443 3.92842C173.511 3.57129 174.935 2.49988 175.291 1.07135L176.003 0L176.715 1.07135C177.427 2.49988 178.495 3.57129 179.563 3.92842L180.631 4.28558L179.563 4.64268C178.377 5.35694 177.427 6.30931 176.715 7.49975L176.003 8.57115ZM173.511 4.64268C174.461 5.11885 175.291 5.71407 176.003 6.42834C176.478 5.71407 177.19 5.11885 178.139 4.64268C177.19 3.92841 176.478 3.21418 176.003 2.49992C175.291 3.21418 174.461 3.92841 173.511 4.64268Z" fill="#3BE174"/>
<path fill-rule="evenodd" clip-rule="evenodd" d="M176.003 39.9996L175.291 38.9282C174.579 37.4997 173.63 36.5473 172.443 36.0711L171.375 35.714L172.443 35.3569C173.511 34.6426 174.935 33.5712 175.291 32.4998L176.003 31.0713L176.715 32.4998C177.427 33.5712 178.495 34.6426 179.563 35.3569L180.631 35.714L179.563 36.0711C178.377 36.5473 177.427 37.4997 176.715 38.9282L176.003 39.9996ZM173.511 35.714C174.461 36.1902 175.291 36.9044 176.003 37.8568C176.478 36.9044 177.19 36.1902 178.139 35.714C177.19 35.2378 176.478 34.5236 176.003 33.5712C175.291 34.5236 174.461 35.2378 173.511 35.714Z" fill="#3BE174"/>
<path d="M176.005 26.072C174.107 23.6912 172.09 21.7865 169.954 20.358C172.09 18.9294 174.107 17.1438 176.005 15.001C177.904 17.1438 180.04 18.9294 182.413 20.358C180.04 21.7865 177.904 23.6912 176.005 26.072Z" fill="#3BE174"/>
</svg>
